<svg width="500" height="500" viewBox="0 0 500 500" fill="none" xmlns="http://www.w3.org/2000/svg">
<g stroke="black" stroke-width="20" stroke-linecap="round" stroke-linejoin="round">
<rect x="97.3478" y="143" width="304.763" height="239.811" rx="59.8241"/>
<line x1="216.428" y1="328.471" x2="283.031" y2="328.471"/>
<line x1="147.456" y1="298.591" x2="198.544" y2="262.818"/>
<line x1="198.732" y1="262.7" x2="147.643" y2="226.927"/>
<path d="M417.524 224C429.937 224 440 234.063 440 246.477V278.953C439.999 291.366 429.936 301.429 417.523 301.429H405.873V224H417.524Z"/>
<path d="M82.4758 224C70.0627 224 60.0002 234.063 60.0002 246.477V278.953C60.0005 291.366 70.0636 301.429 82.4768 301.429H94.1272V224H82.4758Z"/>
<circle cx="249.729" cy="123.302" r="33.3018"/>
<path d="M302.795 305.396C310.869 310.271 319.198 311.941 328.509 311.653C342.758 339.156 356.982 366.655 371.081 394.234C375.518 402.954 378.684 412.819 388.79 416.054C393.967 417.768 399.619 417.312 404.452 414.795C409.249 412.342 412.867 408.082 414.505 402.954C417.961 392.137 411.359 384.489 406.119 375.57L359.591 296.133C367.619 286.251 371.778 274.965 370.449 262.136C369.239 250.327 363.316 239.497 354.016 232.095C348.886 227.993 340.724 224.067 334.192 223.281C320.125 221.515 321.16 223.903 327.541 234.702C329.403 237.841 339.162 255.523 341.443 259.701C341.443 259.701 334.885 270.328 331.773 274.273L313.146 276.432C313.146 276.432 299.404 254.724 297.257 251.132C295.941 248.93 294.515 245.649 292.522 244.054C290.505 242.446 288.252 244.521 287.184 246.207C281.597 255.042 280.397 267.984 282.834 277.972C285.561 289.403 292.747 299.276 302.795 305.396Z"/>
</g>
</svg>
